<?xml version="1.0" encoding="UTF-8"?>
<!DOCTYPE svg PUBLIC "-//W3C//DTD SVG 1.1//EN" "http://www.w3.org/Graphics/SVG/1.1/DTD/svg11.dtd">
<svg version="1.1" xmlns="http://www.w3.org/2000/svg" xmlns:xlink="http://www.w3.org/1999/xlink" x="0" y="0" width="112" height="112" viewBox="0, 0, 448, 448">
  <g id="Layer_1">
    <path d="M224.05,109.09 C160.45,109.09 109.15,160.39 109.15,223.99 C109.15,287.59 160.45,338.89 224.05,338.89 C287.65,338.89 338.95,287.59 338.95,223.99 C338.95,160.39 287.65,109.09 224.05,109.09 z M224.05,298.69 C182.95,298.69 149.35,265.19 149.35,223.99 C149.35,182.79 182.85,149.29 224.05,149.29 C265.25,149.29 298.75,182.79 298.75,223.99 C298.75,265.19 265.15,298.69 224.05,298.69 z M370.45,104.39 C370.45,119.29 358.45,131.19 343.65,131.19 C328.75,131.19 316.85,119.19 316.85,104.39 C316.85,89.59 328.85,77.59 343.65,77.59 C358.45,77.59 370.45,89.59 370.45,104.39 z M446.55,131.59 C444.85,95.69 436.65,63.89 410.35,37.69 C384.15,11.49 352.35,3.29 316.45,1.49 C279.45,-0.61 168.55,-0.61 131.55,1.49 C95.75,3.19 63.95,11.39 37.65,37.59 C11.35,63.79 3.25,95.59 1.45,131.49 C-0.65,168.49 -0.65,279.39 1.45,316.39 C3.15,352.29 11.35,384.09 37.65,410.29 C63.95,436.49 95.65,444.69 131.55,446.49 C168.55,448.59 279.45,448.59 316.45,446.49 C352.35,444.79 384.15,436.59 410.35,410.29 C436.55,384.09 444.75,352.29 446.55,316.39 C448.65,279.39 448.65,168.59 446.55,131.59 z M398.75,356.09 C390.95,375.69 375.85,390.79 356.15,398.69 C326.65,410.39 256.65,407.69 224.05,407.69 C191.45,407.69 121.35,410.29 91.95,398.69 C72.35,390.89 57.25,375.79 49.35,356.09 C37.65,326.59 40.35,256.59 40.35,223.99 C40.35,191.39 37.75,121.29 49.35,91.89 C57.15,72.29 72.25,57.19 91.95,49.29 C121.45,37.59 191.45,40.29 224.05,40.29 C256.65,40.29 326.75,37.69 356.15,49.29 C375.75,57.09 390.85,72.19 398.75,91.89 C410.45,121.39 407.75,191.39 407.75,223.99 C407.75,256.59 410.45,326.69 398.75,356.09 z" fill="#FFFFFF" id="instagram"/>
  </g>
</svg>