<?xml version="1.0" encoding="UTF-8"?>
<!DOCTYPE svg PUBLIC "-//W3C//DTD SVG 1.1//EN" "http://www.w3.org/Graphics/SVG/1.1/DTD/svg11.dtd">
<svg version="1.1" xmlns="http://www.w3.org/2000/svg" xmlns:xlink="http://www.w3.org/1999/xlink" x="0" y="0" width="112" height="112" viewBox="0, 0, 448, 448">
  <g id="Layer_1">
    <path d="M100.23,448.085 L7.35,448.085 L7.35,148.985 L100.23,148.985 z M53.74,108.185 C24.04,108.185 -0.05,83.585 -0.05,53.885 C-0.05,24.178 24.033,0.095 53.74,0.095 C83.447,0.095 107.53,24.178 107.53,53.885 C107.53,83.585 83.43,108.185 53.74,108.185 z M447.85,448.085 L355.17,448.085 L355.17,302.485 C355.17,267.785 354.47,223.285 306.88,223.285 C258.59,223.285 251.19,260.985 251.19,299.985 L251.19,448.085 L158.41,448.085 L158.41,148.985 L247.49,148.985 L247.49,189.785 L248.79,189.785 C261.19,166.285 291.48,141.485 336.67,141.485 C430.67,141.485 447.95,203.385 447.95,283.785 L447.95,448.085 z" fill="#FFFFFF" id="linked"/>
  </g>
</svg>