<?xml version="1.0" encoding="UTF-8"?>
<!DOCTYPE svg PUBLIC "-//W3C//DTD SVG 1.1//EN" "http://www.w3.org/Graphics/SVG/1.1/DTD/svg11.dtd">
<svg version="1.1" xmlns="http://www.w3.org/2000/svg" xmlns:xlink="http://www.w3.org/1999/xlink" x="0" y="0" width="112" height="112" viewBox="0, 0, 448, 448">
  <g id="Layer_1">
    <path d="M447.746,119.881 C445.746,163.481 415.346,223.181 356.346,298.981 C295.446,378.181 243.946,417.781 201.746,417.781 C175.646,417.781 153.546,393.681 135.446,345.481 C100.246,216.281 85.246,140.581 56.146,140.581 C52.746,140.581 41.046,147.681 20.946,161.681 L-0.054,134.481 C51.546,89.181 100.846,38.781 131.746,35.981 C166.646,32.581 188.046,56.481 196.146,107.481 C224.846,288.981 237.546,316.381 289.746,234.181 C308.446,204.581 318.546,182.081 319.946,166.581 C324.746,120.681 284.146,123.781 256.646,135.581 C278.646,63.481 320.746,28.481 382.846,30.481 C428.646,31.681 450.346,61.581 447.746,119.881 z" fill="#FFFFFF" id="vimeo"/>
  </g>
</svg>